<?xml version="1.0" encoding="UTF-8" standalone="no"?>
<!-- Created with Inkscape (http://www.inkscape.org/) -->

<svg
   width="210mm"
   height="297mm"
   viewBox="0 0 210 297"
   version="1.1"
   id="svg5"
   inkscape:version="1.2.1 (9c6d41e410, 2022-07-14)"
   sodipodi:docname="&amp;@Ocall.svg"
   xmlns:inkscape="http://www.inkscape.org/namespaces/inkscape"
   xmlns:sodipodi="http://sodipodi.sourceforge.net/DTD/sodipodi-0.dtd"
   xmlns="http://www.w3.org/2000/svg"
   xmlns:svg="http://www.w3.org/2000/svg">
  <sodipodi:namedview
     id="namedview7"
     pagecolor="#ffffff"
     bordercolor="#000000"
     borderopacity="0.25"
     inkscape:showpageshadow="2"
     inkscape:pageopacity="0.0"
     inkscape:pagecheckerboard="0"
     inkscape:deskcolor="#d1d1d1"
     inkscape:document-units="mm"
     showgrid="false"
     inkscape:zoom="0.71181884"
     inkscape:cx="332.94988"
     inkscape:cy="806.38495"
     inkscape:window-width="1366"
     inkscape:window-height="745"
     inkscape:window-x="-8"
     inkscape:window-y="-8"
     inkscape:window-maximized="1"
     inkscape:current-layer="layer1" />
  <defs
     id="defs2" />
  <g
     inkscape:label="Слой 1"
     inkscape:groupmode="layer"
     id="layer1">
    <rect
       style="fill:#00ffff;stroke-width:0.264583"
       id="rect111"
       width="208.15222"
       height="92.925095"
       x="0.74340075"
       y="1.4868015" />
    <rect
       style="fill:#deaa87;stroke-width:0.264583"
       id="rect165"
       width="209.73982"
       height="46.258408"
       x="1.0513275"
       y="94.093803" />
    <rect
       style="fill:#ac9393;stroke-width:0.264583"
       id="rect219"
       width="208.68849"
       height="68.336281"
       x="-0.52566373"
       y="140.3522" />
    <rect
       style="fill:#000080;stroke-width:0.264583"
       id="rect273"
       width="65.182304"
       height="90.414162"
       x="-1.05133"
       y="206.58583"
       ry="19.449558" />
    <rect
       style="fill:#00ff00;stroke-width:0.224065"
       id="rect327"
       width="149.2885"
       height="91.991142"
       x="58.874344"
       y="204.48318"
       ry="19.449558" />
    <rect
       style="fill:#800080;stroke-width:0.264583"
       id="rect541"
       width="88.311501"
       height="89.362831"
       x="120.90266"
       y="207.1115"
       ry="11.038935" />
    <path
       style="fill:#008000;stroke-width:0.264583"
       d="M 28.123009,95.407963 16.032743,84.106193 21.552212,79.900885 16.295575,76.746901 28.385841,64.130972 17.609734,67.284954 42.841592,55.457521 48.886726,67.81062 c 0,0 16.032742,2.89115 14.718583,3.942477 -1.314159,1.051327 -11.564602,13.141592 -11.564602,13.141592 l 8.147788,2.628318 -11.301769,9.199115 -12.878763,-0.525664 z"
       id="path597" />
    <path
       style="fill:#552200;stroke-width:0.264583"
       d="M 34.956636,96.196458 32.59115,127.21062 44.155751,127.73628 42.57876,96.722122 Z"
       id="path653" />
    <path
       style="fill:#008000;stroke-width:0.264583"
       d="m 87.785838,125.10796 -6.307962,-5.7823 6.570794,-6.57079 4.993807,2.10265 -7.884956,-6.83363 2.891149,-7.09646 11.301772,2.10266 10.513278,1.05132 2.89115,8.41062 -7.09646,7.88496 3.15398,2.89115 z"
       id="path709" />
    <path
       style="fill:#008000;stroke-width:0.264583"
       d="M 144.82035,94.093804 C 124.5823,88.574336 124.31947,91.99115 125.37079,82.003539 c 1.05133,-9.98761 3.67965,2.628318 7.88496,-4.730975 4.20531,-7.35929 -16.82124,6.045134 -6.83363,-4.205308 9.98761,-10.250443 31.80266,-24.18053 41.2646,-9.724779 9.46195,14.455751 27.59735,13.667256 18.9239,19.712389 -8.67345,6.045134 -20.76372,10.250443 -24.7062,12.353097 -3.94248,2.102654 -17.08407,-1.314159 -17.08407,-1.314159 z"
       id="path765" />
    <path
       style="fill:#552200;stroke-width:0.264583"
       d="m 137.19823,91.465486 -1.31416,43.892924 36.00796,-2.10266 -6.57079,-42.841591 z"
       id="path767" />
    <ellipse
       style="fill:#ffff00;stroke-width:0.264583"
       id="path821"
       cx="175.04602"
       cy="23.654867"
       rx="18.923893"
       ry="14.718584" />
    <path
       style="fill:#ffff00;stroke-width:0.264583"
       d="m 135.09557,249.69026 28.91151,-21.02655 5.7823,7.88496 -30.4885,19.97522 z"
       id="path929" />
    <path
       style="fill:#ffff00;stroke-width:0.264583"
       d="m 164.53274,219.20177 32.59115,35.74513 -8.41062,5.7823 -31.01416,-34.6938 z"
       id="path931" />
    <path
       style="fill:#ff0000;stroke-width:0.264583"
       d="m 16.354816,169.86707 22.673723,-20.81522 28.992628,19.32842 -7.434005,2.2302 -25.275627,-7.80571 z"
       id="path933" />
    <path
       style="fill:#ff0000;stroke-width:0.264583"
       d="m 47.949349,153.88396 2.601902,-17.09822 16.726517,2.9736 -7.805709,22.30202 z"
       id="path989" />
    <rect
       style="fill:#aa4400;stroke-width:0.264583"
       id="rect991"
       width="67.810623"
       height="15.244247"
       x="112.49203"
       y="155.0708"
       ry="7.6221237" />
    <text
       xml:space="preserve"
       style="font-size:9.87777px;text-align:center;text-anchor:middle;fill:#ff0000;stroke-width:0.264583"
       x="55.755058"
       y="19.700119"
       id="text1099"><tspan
         sodipodi:role="line"
         id="tspan1097"
         style="stroke-width:0.264583;fill:#ff0000"
         x="55.755058"
         y="19.700119">Wild animal world</tspan></text>
    <text
       xml:space="preserve"
       style="font-size:9.87777px;text-align:center;text-anchor:middle;fill:#ff0000;stroke-width:0.264583"
       x="72.109879"
       y="31.222834"
       id="text1205"><tspan
         sodipodi:role="line"
         id="tspan1203"
         style="stroke-width:0.264583"
         x="72.109879"
         y="31.222834">not an are crpipt if you wild</tspan></text>
    <rect
       style="fill:#ff0000;stroke-width:0.276348"
       id="rect1207"
       width="17.098219"
       height="11.151011"
       x="160.88667"
       y="121.28503"
       ry="5.5755057"
       transform="rotate(27.916911)" />
    <path
       style="fill:#ff0000;stroke-width:0.264583"
       d="m 95.526996,187.33699 14.868014,-15.23972 5.20381,9.29251 -17.469922,9.29251 z"
       id="path1209" />
    <rect
       style="fill:#ff0000;stroke-width:0.264583"
       id="rect1211"
       width="18.95672"
       height="10.779311"
       x="144.96315"
       y="192.1691"
       ry="5.3896556" />
    <path
       style="fill:#ff0000;stroke-width:0.264583"
       d="m 153.88396,193.65589 c 0.7434,-4.4604 5.9472,-30.47943 5.9472,-30.47943 l 14.49632,3.71701 -16.72652,26.39072 z"
       id="path1213" />
    <path
       sodipodi:type="star"
       style="fill:#000080;stroke-width:0.264583"
       id="path1267"
       inkscape:flatsided="false"
       sodipodi:sides="5"
       sodipodi:cx="159.83118"
       sodipodi:cy="181.94734"
       sodipodi:r1="2.1695373"
       sodipodi:r2="1.7850327"
       sodipodi:arg1="-0.903777"
       sodipodi:arg2="-0.27545847"
       inkscape:rounded="0"
       inkscape:randomized="0"
       d="m 161.17335,180.2428 0.37556,1.21903 0.31813,1.23527 -1.04331,0.73388 -1.0765,0.68427 -1.02036,-0.76546 -0.98344,-0.81236 0.41269,-1.20697 0.4687,-1.18634 1.27542,0.0195 z"
       inkscape:transform-center-x="0.29185602"
       inkscape:transform-center-y="0.051193026" />
    <path
       sodipodi:type="star"
       style="fill:#000080;stroke-width:0.264583"
       id="path1321"
       inkscape:flatsided="false"
       sodipodi:sides="5"
       sodipodi:cx="162.80476"
       sodipodi:cy="172.65482"
       sodipodi:r1="2.6324435"
       sodipodi:r2="2.3231275"
       sodipodi:arg1="-0.094968597"
       sodipodi:arg2="0.53334993"
       inkscape:rounded="0"
       inkscape:randomized="0"
       d="m 165.42535,172.40519 -0.62012,1.43075 -0.95326,1.23406 -1.55235,-0.14764 -1.46823,-0.52526 -0.33929,-1.52199 0.0458,-1.55868 1.34266,-0.79301 1.49656,-0.43806 1.1691,1.03189 z"
       inkscape:transform-center-x="-0.04358868"
       inkscape:transform-center-y="-0.40201824" />
    <text
       xml:space="preserve"
       style="font-size:9.87777px;text-align:center;text-anchor:middle;fill:#000080;stroke-width:0.264583"
       x="121.69115"
       y="178.98849"
       id="text1377"><tspan
         sodipodi:role="line"
         id="tspan1375"
         style="stroke-width:0.264583"
         x="121.69115"
         y="178.98849">Damadge</tspan><tspan
         sodipodi:role="line"
         style="stroke-width:0.264583"
         x="121.69115"
         y="191.33571"
         id="tspan1429">Bobr</tspan></text>
    <rect
       style="fill:#550000;stroke-width:0.264583"
       id="rect1431"
       width="8.9362831"
       height="15.769911"
       x="69.913269"
       y="252.31857"
       ry="0" />
    <rect
       style="fill:#550000;stroke-width:0.264583"
       id="rect1487"
       width="12.266112"
       height="26.390726"
       x="82.517487"
       y="241.60524" />
    <rect
       style="fill:#550000;stroke-width:0.264583"
       id="rect1489"
       width="14.496315"
       height="37.541737"
       x="99.6157"
       y="230.82593" />
    <rect
       style="fill:#550000;stroke-width:0.264583"
       id="rect1491"
       width="11.894412"
       height="27.877525"
       x="49.064449"
       y="245.32225" />
    <rect
       style="fill:#550000;stroke-width:0.264583"
       id="rect1493"
       width="27.877525"
       height="14.496315"
       x="7.8057079"
       y="253.87135" />
    <text
       xml:space="preserve"
       style="font-size:9.87777px;text-align:center;text-anchor:middle;fill:#550000;stroke-width:0.264583"
       x="68.392868"
       y="153.88394"
       id="text1549"><tspan
         sodipodi:role="line"
         id="tspan1547"
         style="stroke-width:0.264583"
         x="68.392868"
         y="153.88394">Aspin house off ramiras bobr</tspan></text>
  </g>
</svg>
